700 200 1 0         
16 Autodesk AutoCAD 20 ASM 225.1.0.65535 NT 24 Tue Nov 24 12:25:02 2020 
1 9.999999999999999547e-07 1.000000000000000036e-10 
body $-1 -1 $-1 $1 $-1 $-1 #
lump $-1 -1 $-1 $-1 $2 $0 #
shell $-1 -1 $-1 $-1 $-1 $3 $-1 $1 #
face $4 -1 $-1 $-1 $5 $2 $-1 $6 forward double out #
color-adesk-attrib $-1 -1 $-1 $-1 $3 256 #
loop $-1 -1 $-1 $7 $8 $3 #
plane-surface $-1 -1 $-1 6.383782391594650107e-16 2.084697602539536732 0 0 0 1 1 0 0 forward_v I I I I #
loop $-1 -1 $-1 $-1 $9 $3 #
coedge $-1 -1 $-1 $10 $11 $-1 $12 forward $5 $-1 #
coedge $-1 -1 $-1 $13 $14 $-1 $15 forward $7 $-1 #
coedge $-1 -1 $-1 $16 $8 $-1 $17 forward $5 $-1 #
coedge $-1 -1 $-1 $8 $18 $-1 $19 forward $5 $-1 #
edge $20 -1 $-1 $21 -1.690806831803646215 $22 -0 $8 $23 forward @7 unknown #
coedge $-1 -1 $-1 $24 $9 $-1 $25 forward $7 $-1 #
coedge $-1 -1 $-1 $9 $26 $-1 $27 reversed $7 $-1 #
edge $28 -1 $-1 $29 0 $30 2.515767078078675834 $9 $31 forward @7 unknown #
coedge $-1 -1 $-1 $32 $10 $-1 $33 forward $5 $-1 #
edge $34 -1 $-1 $22 -0.5830951894845297634 $35 -0 $10 $36 forward @7 unknown #
coedge $-1 -1 $-1 $11 $37 $-1 $38 forward $5 $-1 #
edge $39 -1 $-1 $40 -1.494024435525111105 $21 0 $11 $41 forward @7 unknown #
color-adesk-attrib $-1 -1 $-1 $-1 $12 256 #
vertex $-1 -1 $-1 $12 $42 #
vertex $-1 -1 $-1 $12 $43 #
straight-curve $-1 -1 $-1 2.431000000000000494 0.5799999999999991829 0 -0.2425356250363336075 -0.9701425001453317654 -0 F -1.690806831803646215 F -0 #
coedge $-1 -1 $-1 $44 $13 $-1 $45 forward $7 $-1 #
edge $46 -1 $-1 $30 0 $47 1.325817663668032109 $13 $48 forward @7 unknown #
coedge $-1 -1 $-1 $14 $49 $-1 $50 forward $7 $-1 #
edge $51 -1 $-1 $29 0 $52 2.515767078078675834 $14 $53 forward @7 unknown #
color-adesk-attrib $-1 -1 $-1 $-1 $15 256 #
vertex $-1 -1 $-1 $27 $54 #
vertex $-1 -1 $-1 $25 $55 #
straight-curve $-1 -1 $-1 6.613159287765856076e-16 0 0 1 -2.350022494668982149e-16 0 F 0 F 2.515767078078675834 #
coedge $-1 -1 $-1 $56 $16 $-1 $57 forward $5 $-1 #
edge $58 -1 $-1 $35 -1.93100000000000005 $59 1.93100000000000005 $16 $60 forward @7 unknown #
color-adesk-attrib $-1 -1 $-1 $-1 $17 256 #
vertex $-1 -1 $-1 $33 $61 #
straight-curve $-1 -1 $-1 1.931000000000000716 0.279999999999999305 0 -0.8574929257125442073 -0.5144957554275265688 -0 F -0.5830951894845297634 F -0 #
coedge $-1 -1 $-1 $18 $62 $-1 $63 forward $5 $-1 #
edge $64 -1 $-1 $65 -0.9215909532065419407 $40 0 $18 $66 forward @7 unknown #
color-adesk-attrib $-1 -1 $-1 $-1 $19 256 #
vertex $-1 -1 $-1 $19 $67 #
ellipse-curve $-1 -1 $-1 2.647052391738132116 2.268830692076063027 0 -0 -0 -1 0.1940285000290673523 -0.04850712500726617193 0 1 F -1.494024435525111105 F -0 #
point $-1 -1 $-1 2.841080891767199468 2.220323567068796855 0 #
point $-1 -1 $-1 2.431000000000000494 0.5799999999999991829 0 #
coedge $-1 -1 $-1 $68 $24 $-1 $69 reversed $7 $-1 #
edge $70 -1 $-1 $47 0 $71 1.747895483624199109 $24 $72 forward @7 unknown #
color-adesk-attrib $-1 -1 $-1 $-1 $25 256 #
vertex $-1 -1 $-1 $25 $73 #
ellipse-curve $-1 -1 $-1 2.515767078078676278 0.2999999999999993783 0 0 -0 1 0 -0.3000000000000000444 0 1 F 0 F 1.325817663668032109 #
coedge $-1 -1 $-1 $26 $74 $-1 $75 reversed $7 $-1 #
edge $76 -1 $-1 $77 0 $52 1.325817663668032553 $26 $78 forward @7 unknown #
color-adesk-attrib $-1 -1 $-1 $-1 $27 256 #
vertex $-1 -1 $-1 $50 $79 #
straight-curve $-1 -1 $-1 0 0 0 -1 1.323917902773075993e-16 0 F 0 F 2.515767078078675834 #
point $-1 -1 $-1 0 0 0 #
point $-1 -1 $-1 2.515767078078676278 -6.661338147750939243e-16 0 #
coedge $-1 -1 $-1 $80 $32 $-1 $81 forward $5 $-1 #
edge $82 -1 $-1 $59 0 $83 0.5830951894845299854 $32 $84 forward @7 unknown #
color-adesk-attrib $-1 -1 $-1 $-1 $33 256 #
vertex $-1 -1 $-1 $57 $85 #
straight-curve $-1 -1 $-1 1.7145055188062947e-17 0.2800000000000000266 0 -1 0 0 F -1.93100000000000005 F 1.93100000000000005 #
point $-1 -1 $-1 1.931000000000000716 0.279999999999999305 0 #
coedge $-1 -1 $-1 $37 $80 $-1 $86 forward $5 $-1 #
edge $87 -1 $-1 $88 -1.835999999999999632 $65 1.835999999999999632 $37 $89 forward @7 unknown #
color-adesk-attrib $-1 -1 $-1 $-1 $38 256 #
vertex $-1 -1 $-1 $38 $90 #
straight-curve $-1 -1 $-1 2.710297944941500781 2.458567351686166358 0 0.948683298050513657 -0.3162277660168381077 -0 F -0.9215909532065420517 F -0 #
point $-1 -1 $-1 2.710297944941500781 2.458567351686166358 0 #
coedge $-1 -1 $-1 $91 $44 $-1 $92 forward $7 $-1 #
edge $93 -1 $-1 $94 0 $71 1.160668986253403423 $44 $95 forward @7 unknown #
color-adesk-attrib $-1 -1 $-1 $-1 $45 256 #
vertex $-1 -1 $-1 $45 $96 #
straight-curve $-1 -1 $-1 2.80680982812227553 0.227239312489099482 0 0.2425356250363333577 0.9701425001453317654 0 F 0 F 1.747895483624199109 #
point $-1 -1 $-1 2.806809828122275974 0.227239312489099371 0 #
coedge $-1 -1 $-1 $49 $97 $-1 $98 reversed $7 $-1 #
edge $99 -1 $-1 $77 0 $100 1.747895483624198887 $49 $101 forward @7 unknown #
color-adesk-attrib $-1 -1 $-1 $-1 $50 256 #
vertex $-1 -1 $-1 $75 $102 #
ellipse-curve $-1 -1 $-1 -2.515767078078675834 0.3000000000000003775 0 -0 -0 1 -0.2910427500435996961 -0.07276068751089986852 0 1 F 0 F 1.325817663668032553 #
point $-1 -1 $-1 -2.515767078078676278 2.775557561562891351e-16 0 #
coedge $-1 -1 $-1 $62 $56 $-1 $103 forward $5 $-1 #
edge $104 -1 $-1 $83 0 $105 1.690806831803645993 $56 $106 forward @7 unknown #
color-adesk-attrib $-1 -1 $-1 $-1 $57 256 #
vertex $-1 -1 $-1 $81 $107 #
straight-curve $-1 -1 $-1 -1.93100000000000005 0.2800000000000000266 0 -0.8574929257125440962 0.5144957554275265688 0 F 0 F 0.5830951894845300965 #
point $-1 -1 $-1 -1.93100000000000005 0.2800000000000000266 0 #
edge $108 -1 $-1 $109 0 $88 0.9215909532065423848 $62 $110 forward @7 unknown #
color-adesk-attrib $-1 -1 $-1 $-1 $63 256 #
vertex $-1 -1 $-1 $63 $111 #
straight-curve $-1 -1 $-1 8.389476183744016192e-16 2.750000000000000444 0 1 -2.418786546024306634e-16 0 F -1.835999999999999632 F 1.835999999999999632 #
point $-1 -1 $-1 1.836000000000001853 2.749999999999999556 0 #
coedge $-1 -1 $-1 $112 $68 $-1 $113 forward $7 $-1 #
edge $114 -1 $-1 $94 0 $115 1.637231915779304492 $68 $116 forward @7 unknown #
color-adesk-attrib $-1 -1 $-1 $-1 $69 256 #
vertex $-1 -1 $-1 $69 $117 #
ellipse-curve $-1 -1 $-1 3.958343626850254093 1.741045288187762941 0 -0 0 1 -0.1232992404790187457 0.7397954428741086996 0 1 F 0 F 1.160668986253403423 #
point $-1 -1 $-1 3.230736751741254853 1.922947006965013861 0 #
coedge $-1 -1 $-1 $74 $118 $-1 $119 reversed $7 $-1 #
edge $120 -1 $-1 $100 0 $121 1.160668986253406754 $74 $122 forward @7 unknown #
color-adesk-attrib $-1 -1 $-1 $-1 $75 256 #
vertex $-1 -1 $-1 $98 $123 #
straight-curve $-1 -1 $-1 -2.806809828122275086 0.227239312489100509 0 -0.2425356250363328858 0.9701425001453319874 0 F 0 F 1.747895483624198887 #
point $-1 -1 $-1 -2.806809828122275086 0.227239312489100509 0 #
edge $124 -1 $-1 $105 -1.494024435525115102 $109 0 $80 $125 forward @7 unknown #
color-adesk-attrib $-1 -1 $-1 $-1 $81 256 #
vertex $-1 -1 $-1 $103 $126 #
straight-curve $-1 -1 $-1 -2.43100000000000005 0.5800000000000000711 0 -0.2425356250363331079 0.9701425001453318764 0 F 0 F 1.690806831803645993 #
point $-1 -1 $-1 -2.43100000000000005 0.5800000000000000711 0 #
color-adesk-attrib $-1 -1 $-1 $-1 $86 256 #
vertex $-1 -1 $-1 $86 $127 #
straight-curve $-1 -1 $-1 -2.710297944941499448 2.458567351686167246 0 0.948683298050513768 0.3162277660168379967 0 F 0 F 0.9215909532065423848 #
point $-1 -1 $-1 -1.835999999999998744 2.750000000000000888 0 #
coedge $-1 -1 $-1 $128 $91 $-1 $129 forward $7 $-1 #
edge $130 -1 $-1 $115 0 $131 0.8527156618709423874 $91 $132 forward @7 unknown #
color-adesk-attrib $-1 -1 $-1 $-1 $92 256 #
vertex $-1 -1 $-1 $92 $133 #
straight-curve $-1 -1 $-1 3.835044386371235792 2.48084073106187164 0 0.9863939238321438596 0.1643989873053566253 0 F 0 F 1.637231915779304492 #
point $-1 -1 $-1 3.835044386371235348 2.48084073106187164 0 #
coedge $-1 -1 $-1 $97 $134 $-1 $135 reversed $7 $-1 #
edge $136 -1 $-1 $121 0 $137 1.637231915779304048 $97 $138 forward @7 unknown #
color-adesk-attrib $-1 -1 $-1 $-1 $98 256 #
vertex $-1 -1 $-1 $119 $139 #
ellipse-curve $-1 -1 $-1 -3.958343626850251873 1.741045288187765827 0 0 0 1 0.7276068751089983522 0.181901718777249144 0 1 F 0 F 1.160668986253406754 #
point $-1 -1 $-1 -3.230736751741253521 1.922947006965014971 0 #
color-adesk-attrib $-1 -1 $-1 $-1 $103 256 #
ellipse-curve $-1 -1 $-1 -2.647052391738131227 2.268830692076064359 0 0 -0 -1 -0.06324555320336822106 0.1897366596101028868 0 1 F -1.494024435525115102 F -0 #
point $-1 -1 $-1 -2.841080891767198136 2.220323567068797743 0 #
point $-1 -1 $-1 -2.710297944941499448 2.458567351686167246 0 #
coedge $-1 -1 $-1 $140 $112 $-1 $141 forward $7 $-1 #
edge $142 -1 $-1 $131 0 $143 0.2339999999999999858 $112 $144 forward @7 unknown #
color-adesk-attrib $-1 -1 $-1 $-1 $113 256 #
vertex $-1 -1 $-1 $113 $145 #
straight-curve $-1 -1 $-1 5.450000000000001954 2.749999999999998224 0 0.9968152785361250601 0.07974522228289010473 0 F 0 F 0.8527156618709423874 #
point $-1 -1 $-1 5.450000000000001954 2.749999999999998224 0 #
coedge $-1 -1 $-1 $118 $146 $-1 $147 reversed $7 $-1 #
edge $148 -1 $-1 $137 0 $149 0.8527156618709423874 $118 $150 forward @7 unknown #
color-adesk-attrib $-1 -1 $-1 $-1 $119 256 #
vertex $-1 -1 $-1 $135 $151 #
straight-curve $-1 -1 $-1 -3.835044386371234459 2.480840731061872972 0 -0.9863939238321438596 0.1643989873053572082 0 F 0 F 1.637231915779304048 #
point $-1 -1 $-1 -3.835044386371234459 2.480840731061872972 0 #
coedge $-1 -1 $-1 $152 $128 $-1 $153 forward $7 $-1 #
edge $154 -1 $-1 $143 0 $155 0.4000000000000003553 $128 $156 forward @7 unknown #
color-adesk-attrib $-1 -1 $-1 $-1 $129 256 #
vertex $-1 -1 $-1 $129 $157 #
straight-curve $-1 -1 $-1 6.300000000000001599 2.817999999999998284 0 0 1 0 F 0 F 0.2339999999999999858 #
point $-1 -1 $-1 6.300000000000001599 2.817999999999998284 0 #
coedge $-1 -1 $-1 $134 $158 $-1 $159 reversed $7 $-1 #
edge $160 -1 $-1 $149 0 $161 0.2339999999999999858 $134 $162 forward @7 unknown #
color-adesk-attrib $-1 -1 $-1 $-1 $135 256 #
vertex $-1 -1 $-1 $147 $163 #
straight-curve $-1 -1 $-1 -5.450000000000000178 2.750000000000000444 0 -0.9968152785361250601 0.07974522228289010473 0 F 0 F 0.8527156618709423874 #
point $-1 -1 $-1 -5.450000000000000178 2.750000000000000444 0 #
coedge $-1 -1 $-1 $164 $140 $-1 $165 forward $7 $-1 #
edge $166 -1 $-1 $155 0 $167 1.600319968006399085 $140 $168 forward @7 unknown #
color-adesk-attrib $-1 -1 $-1 $-1 $141 256 #
vertex $-1 -1 $-1 $141 $169 #
straight-curve $-1 -1 $-1 6.300000000000001599 3.05199999999999827 0 -1 0 0 F 0 F 0.4000000000000003553 #
point $-1 -1 $-1 6.300000000000001599 3.05199999999999827 0 #
coedge $-1 -1 $-1 $146 $170 $-1 $171 reversed $7 $-1 #
edge $172 -1 $-1 $161 0 $173 0.4000000000000003553 $146 $174 forward @7 unknown #
color-adesk-attrib $-1 -1 $-1 $-1 $147 256 #
vertex $-1 -1 $-1 $159 $175 #
straight-curve $-1 -1 $-1 -6.299999999999999822 2.818000000000000504 0 0 1 0 F 0 F 0.2339999999999999858 #
point $-1 -1 $-1 -6.299999999999999822 2.818000000000000504 0 #
coedge $-1 -1 $-1 $176 $152 $-1 $177 forward $7 $-1 #
edge $178 -1 $-1 $167 0 $179 0.5002249493977685146 $152 $180 forward @7 unknown #
color-adesk-attrib $-1 -1 $-1 $-1 $153 256 #
vertex $-1 -1 $-1 $153 $181 #
straight-curve $-1 -1 $-1 5.900000000000001243 3.05199999999999827 0 -0.9998000599800068722 -0.01999600119959987071 0 F 0 F 1.600319968006399085 #
point $-1 -1 $-1 5.900000000000001243 3.05199999999999827 0 #
coedge $-1 -1 $-1 $158 $176 $-1 $182 reversed $7 $-1 #
edge $183 -1 $-1 $173 0 $184 1.600319968006399085 $158 $185 forward @7 unknown #
color-adesk-attrib $-1 -1 $-1 $-1 $159 256 #
vertex $-1 -1 $-1 $171 $186 #
straight-curve $-1 -1 $-1 -6.299999999999999822 3.05200000000000049 0 1 0 0 F 0 F 0.4000000000000003553 #
point $-1 -1 $-1 -6.299999999999999822 3.05200000000000049 0 #
coedge $-1 -1 $-1 $170 $164 $-1 $187 reversed $7 $-1 #
edge $188 -1 $-1 $179 0 $189 3.799999999999999378 $164 $190 forward @7 unknown #
color-adesk-attrib $-1 -1 $-1 $-1 $165 256 #
vertex $-1 -1 $-1 $165 $191 #
straight-curve $-1 -1 $-1 4.300000000000000711 3.019999999999998685 0 -0.9995503035223666233 0.02998650910567213571 0 F 0 F 0.5002249493977685146 #
point $-1 -1 $-1 4.300000000000000711 3.019999999999998685 0 #
edge $192 -1 $-1 $184 0 $193 0.5002249493977685146 $170 $194 forward @7 unknown #
color-adesk-attrib $-1 -1 $-1 $-1 $171 256 #
vertex $-1 -1 $-1 $182 $195 #
straight-curve $-1 -1 $-1 -5.899999999999999467 3.05200000000000049 0 0.9998000599800068722 -0.01999600119960014827 0 F 0 F 1.600319968006399085 #
point $-1 -1 $-1 -5.899999999999999467 3.05200000000000049 0 #
edge $196 -1 $-1 $193 0 $189 3.799999999999999378 $176 $197 forward @7 unknown #
color-adesk-attrib $-1 -1 $-1 $-1 $177 256 #
vertex $-1 -1 $-1 $177 $198 #
straight-curve $-1 -1 $-1 3.800000000000000711 3.034999999999999254 0 -1 3.505967446184705409e-16 0 F 0 F 3.799999999999999378 #
point $-1 -1 $-1 3.800000000000000711 3.034999999999999254 0 #
color-adesk-attrib $-1 -1 $-1 $-1 $182 256 #
vertex $-1 -1 $-1 $187 $199 #
straight-curve $-1 -1 $-1 -4.299999999999998934 3.020000000000000462 0 0.9995503035223666233 0.02998650910567124753 0 F 0 F 0.5002249493977685146 #
point $-1 -1 $-1 -4.299999999999998934 3.020000000000000462 0 #
color-adesk-attrib $-1 -1 $-1 $-1 $187 256 #
straight-curve $-1 -1 $-1 -3.799999999999998934 3.035000000000000586 0 1 0 0 F 0 F 3.799999999999999378 #
point $-1 -1 $-1 1.332267629550187849e-15 3.035000000000000586 0 #
point $-1 -1 $-1 -3.799999999999998934 3.035000000000000586 0 #
