700 213 1 0         
16 Autodesk AutoCAD 20 ASM 225.1.0.65535 NT 24 Sun Nov 15 14:01:28 2020 
1 9.999999999999999547e-07 1.000000000000000036e-10 
body $-1 -1 $-1 $1 $-1 $2 #
lump $-1 -1 $-1 $-1 $3 $0 #
transform $-1 -1 1 0 0 0 1 0 0 0 1 0 0 0 1 no_rotate no_reflect no_shear #
shell $-1 -1 $-1 $-1 $-1 $4 $-1 $1 #
face $5 -1 $-1 $-1 $6 $3 $-1 $7 forward double out #
color-adesk-attrib $-1 -1 $-1 $-1 $4 256 #
loop $-1 -1 $-1 $8 $9 $4 #
plane-surface $-1 -1 $-1 -2.557953848736360969e-16 1.960439312594550287 0 0 0 1 0.001000000000000000021 0 0 forward_v I I I I #
loop $-1 -1 $-1 $-1 $10 $4 #
coedge $-1 -1 $-1 $11 $12 $-1 $13 forward $6 $-1 #
coedge $-1 -1 $-1 $14 $15 $-1 $16 forward $8 $-1 #
coedge $-1 -1 $-1 $17 $9 $-1 $18 forward $6 $-1 #
coedge $-1 -1 $-1 $9 $19 $-1 $20 forward $6 $-1 #
edge $21 -1 $-1 $22 -1474.410827771738923 $23 -0 $9 $24 forward @7 unknown #
coedge $-1 -1 $-1 $25 $10 $-1 $26 forward $8 $-1 #
coedge $-1 -1 $-1 $10 $27 $-1 $28 reversed $8 $-1 #
edge $29 -1 $-1 $30 0 $31 2465.767078078674786 $10 $32 forward @7 unknown #
coedge $-1 -1 $-1 $33 $11 $-1 $34 forward $6 $-1 #
edge $35 -1 $-1 $23 0 $36 583.0951894845302377 $11 $37 forward @7 unknown #
coedge $-1 -1 $-1 $12 $38 $-1 $39 forward $6 $-1 #
edge $40 -1 $-1 $41 -1.494316704989242739 $22 0 $12 $42 forward @7 unknown #
color-adesk-attrib $-1 -1 $-1 $-1 $13 256 #
vertex $-1 -1 $-1 $13 $43 #
vertex $-1 -1 $-1 $13 $44 #
straight-curve $-1 -1 $-1 2.470999999999999641 0.5700000000000000622 0 -0.0002428191577020740496 -0.0009700715729536947725 -0 F -1474.410827771738923 F -0 #
coedge $-1 -1 $-1 $45 $14 $-1 $46 reversed $8 $-1 #
edge $47 -1 $-1 $31 0 $48 1.325817663668032775 $14 $49 forward @7 unknown #
coedge $-1 -1 $-1 $15 $50 $-1 $51 forward $8 $-1 #
edge $52 -1 $-1 $30 0 $53 2465.767078078674786 $15 $54 forward @7 unknown #
color-adesk-attrib $-1 -1 $-1 $-1 $16 256 #
vertex $-1 -1 $-1 $28 $55 #
vertex $-1 -1 $-1 $26 $56 #
straight-curve $-1 -1 $-1 -3.429011037612589276e-16 0 0 0.001000000000000000021 -7.199496584644793652e-21 0 F 0 F 2465.767078078674786 #
coedge $-1 -1 $-1 $57 $17 $-1 $58 forward $6 $-1 #
edge $59 -1 $-1 $36 -1970.999999999999318 $60 1970.999999999999773 $17 $61 forward @7 unknown #
color-adesk-attrib $-1 -1 $-1 $-1 $18 256 #
vertex $-1 -1 $-1 $34 $62 #
straight-curve $-1 -1 $-1 2.470999999999999641 0.5700000000000000622 0 -0.0008574929257125443348 -0.000514495755427526319 0 F 0 F 583.0951894845302377 #
coedge $-1 -1 $-1 $19 $63 $-1 $64 forward $6 $-1 #
edge $65 -1 $-1 $66 -921.5366558212872405 $41 0 $19 $67 forward @7 unknown #
color-adesk-attrib $-1 -1 $-1 $-1 $20 256 #
vertex $-1 -1 $-1 $20 $68 #
ellipse-curve $-1 -1 $-1 2.635000880715610894 2.04884786241690442 0 -0 -0 -1 0.1940143145907400057 -0.04856383154041441635 0 1 F -1.494316704989242739 F -0 #
point $-1 -1 $-1 2.829015195306351149 2.000284030876489982 0 #
point $-1 -1 $-1 2.470999999999999641 0.5700000000000000622 0 #
coedge $-1 -1 $-1 $69 $25 $-1 $70 reversed $8 $-1 #
edge $71 -1 $-1 $72 0 $48 1625.28113616036444 $25 $73 forward @7 unknown #
color-adesk-attrib $-1 -1 $-1 $-1 $26 256 #
vertex $-1 -1 $-1 $26 $74 #
ellipse-curve $-1 -1 $-1 2.465767078078674679 0.2999999999999997669 0 0 0 1 0 -0.2999999999999997669 0 1 F 0 F 1.325817663668032775 #
coedge $-1 -1 $-1 $27 $75 $-1 $76 forward $8 $-1 #
edge $77 -1 $-1 $78 0 $53 1.325817663668032331 $27 $79 forward @7 unknown #
color-adesk-attrib $-1 -1 $-1 $-1 $28 256 #
vertex $-1 -1 $-1 $51 $80 #
straight-curve $-1 -1 $-1 0 0 0 -0.001000000000000000021 1.152651833300905222e-19 0 F 0 F 2465.767078078674786 #
point $-1 -1 $-1 0 0 0 #
point $-1 -1 $-1 2.465767078078674679 0 0 #
coedge $-1 -1 $-1 $81 $33 $-1 $82 forward $6 $-1 #
edge $83 -1 $-1 $60 -583.0951894845302377 $84 0 $33 $85 forward @7 unknown #
color-adesk-attrib $-1 -1 $-1 $-1 $34 256 #
vertex $-1 -1 $-1 $58 $86 #
straight-curve $-1 -1 $-1 7.648477511824772579e-17 0.2700000000000000178 0 -0.001000000000000000021 1.153595512142222743e-19 0 F -1970.999999999999318 F 1970.999999999999773 #
point $-1 -1 $-1 1.970999999999999419 0.2700000000000000178 0 #
coedge $-1 -1 $-1 $38 $81 $-1 $87 forward $6 $-1 #
edge $88 -1 $-1 $89 -1824 $66 1823.999999999999545 $38 $90 forward @7 unknown #
color-adesk-attrib $-1 -1 $-1 $-1 $39 256 #
vertex $-1 -1 $-1 $39 $91 #
straight-curve $-1 -1 $-1 2.698246433918979559 2.23858452202700775 0 0.0009486832980505138183 -0.0003162277660168379394 0 F -921.5366558212873542 F -0 #
point $-1 -1 $-1 2.698246433918979559 2.23858452202700775 0 #
coedge $-1 -1 $-1 $92 $45 $-1 $93 reversed $8 $-1 #
edge $94 -1 $-1 $95 0 $72 1.196670373540010379 $45 $96 forward @7 unknown #
color-adesk-attrib $-1 -1 $-1 $-1 $46 256 #
vertex $-1 -1 $-1 $46 $97 #
straight-curve $-1 -1 $-1 3.150998404340689785 1.803993617362761315 0 -0.0002425356250363328253 -0.0009701425001453318434 0 F 0 F 1625.28113616036444 #
point $-1 -1 $-1 2.756809828122274375 0.2272393124891000371 0 #
coedge $-1 -1 $-1 $50 $98 $-1 $99 reversed $8 $-1 #
edge $100 -1 $-1 $101 0 $78 1625.281136160364667 $50 $102 forward @7 unknown #
color-adesk-attrib $-1 -1 $-1 $-1 $51 256 #
vertex $-1 -1 $-1 $76 $103 #
ellipse-curve $-1 -1 $-1 -2.465767078078675123 0.300000000000000322 0 0 0 1 -0.2910427500435994186 -0.07276068751089991016 0 1 F 0 F 1.325817663668032331 #
point $-1 -1 $-1 -2.465767078078675123 4.547473508864641284e-16 0 #
coedge $-1 -1 $-1 $63 $57 $-1 $104 forward $6 $-1 #
edge $105 -1 $-1 $84 0 $106 1474.410827771738923 $57 $107 forward @7 unknown #
color-adesk-attrib $-1 -1 $-1 $-1 $58 256 #
vertex $-1 -1 $-1 $82 $108 #
straight-curve $-1 -1 $-1 -2.471000000000000085 0.5700000000000003952 0 -0.0008574929257125441179 0.0005144957554275264274 0 F -583.0951894845303514 F -0 #
point $-1 -1 $-1 -1.970999999999999863 0.2700000000000002398 0 #
edge $109 -1 $-1 $110 0 $89 921.5366558212866721 $63 $111 forward @7 unknown #
color-adesk-attrib $-1 -1 $-1 $-1 $64 256 #
vertex $-1 -1 $-1 $64 $112 #
straight-curve $-1 -1 $-1 -1.653273178848927175e-17 2.530000000000000693 0 0.001000000000000000021 2.493132406175790423e-19 0 F -1824 F 1823.999999999999545 #
point $-1 -1 $-1 1.823999999999999622 2.530000000000001137 0 #
coedge $-1 -1 $-1 $113 $69 $-1 $114 reversed $8 $-1 #
edge $115 -1 $-1 $116 0 $95 1429.894210131950331 $69 $117 forward @7 unknown #
color-adesk-attrib $-1 -1 $-1 $-1 $70 256 #
vertex $-1 -1 $-1 $70 $118 #
ellipse-curve $-1 -1 $-1 3.878605279449689469 1.622091898585510839 0 0 0 1 -0.09659143573297887531 0.7437540551439322245 0 1 F 0 F 1.196670373540010379 #
point $-1 -1 $-1 3.150998404340689785 1.803993617362761315 0 #
coedge $-1 -1 $-1 $75 $119 $-1 $120 forward $8 $-1 #
edge $121 -1 $-1 $101 0 $122 1.196670373540013266 $75 $123 forward @7 unknown #
color-adesk-attrib $-1 -1 $-1 $-1 $76 256 #
vertex $-1 -1 $-1 $99 $124 #
straight-curve $-1 -1 $-1 -3.150998404340690229 1.803993617362761759 0 0.0002425356250363327982 -0.0009701425001453318434 0 F 0 F 1625.281136160364667 #
point $-1 -1 $-1 -2.756809828122275263 0.2272393124891000371 0 #
edge $125 -1 $-1 $106 -1.494316704989241629 $110 0 $81 $126 forward @7 unknown #
color-adesk-attrib $-1 -1 $-1 $-1 $82 256 #
vertex $-1 -1 $-1 $104 $127 #
straight-curve $-1 -1 $-1 -2.471000000000000085 0.5700000000000003952 0 -0.0002428191577020737514 0.0009700715729536947725 0 F 0 F 1474.410827771738923 #
point $-1 -1 $-1 -2.471000000000000085 0.5700000000000003952 0 #
color-adesk-attrib $-1 -1 $-1 $-1 $87 256 #
vertex $-1 -1 $-1 $87 $128 #
straight-curve $-1 -1 $-1 -2.698246433918979559 2.238584522027008195 0 0.0009486832980505139267 0.0003162277660168376142 0 F 0 F 921.5366558212867858 #
point $-1 -1 $-1 -1.824000000000000066 2.530000000000001137 0 #
coedge $-1 -1 $-1 $129 $92 $-1 $130 forward $8 $-1 #
edge $131 -1 $-1 $132 0 $116 1101.135777277261923 $92 $133 forward @7 unknown #
color-adesk-attrib $-1 -1 $-1 $-1 $93 256 #
vertex $-1 -1 $-1 $93 $134 #
straight-curve $-1 -1 $-1 5.200000000000000178 2.550000000000000266 0 -0.0009916720735252417505 -0.0001287885809773044741 0 F 0 F 1429.894210131950331 #
point $-1 -1 $-1 3.782013843716710788 2.365845953729443174 0 #
coedge $-1 -1 $-1 $98 $135 $-1 $136 forward $8 $-1 #
edge $137 -1 $-1 $138 0 $122 1429.894210131950331 $98 $139 forward @7 unknown #
color-adesk-attrib $-1 -1 $-1 $-1 $99 256 #
vertex $-1 -1 $-1 $120 $140 #
ellipse-curve $-1 -1 $-1 -3.878605279449688581 1.622091898585512393 0 0 0 1 0.7276068751089983522 0.181901718777249477 0 1 F 0 F 1.196670373540013266 #
point $-1 -1 $-1 -3.150998404340690229 1.803993617362761759 0 #
color-adesk-attrib $-1 -1 $-1 $-1 $104 256 #
ellipse-curve $-1 -1 $-1 -2.635000880715610894 2.048847862416904864 0 0 0 -1 -0.06324555320336867903 0.1897366596101033032 0 1 F -1.494316704989241629 F -0 #
point $-1 -1 $-1 -2.829015195306350705 2.000284030876490426 0 #
point $-1 -1 $-1 -2.698246433918979559 2.238584522027008195 0 #
coedge $-1 -1 $-1 $141 $113 $-1 $142 forward $8 $-1 #
edge $143 -1 $-1 $132 0 $144 200 $113 $145 forward @7 unknown #
color-adesk-attrib $-1 -1 $-1 $-1 $114 256 #
vertex $-1 -1 $-1 $114 $146 #
straight-curve $-1 -1 $-1 6.299999999999999822 2.599999999999999645 0 -0.0009989685402102997051 -4.540766091864956893e-05 0 F 0 F 1101.135777277261923 #
point $-1 -1 $-1 5.200000000000000178 2.550000000000000266 0 #
coedge $-1 -1 $-1 $119 $147 $-1 $148 reversed $8 $-1 #
edge $149 -1 $-1 $150 0 $138 1101.135777277261923 $119 $151 forward @7 unknown #
color-adesk-attrib $-1 -1 $-1 $-1 $120 256 #
vertex $-1 -1 $-1 $136 $152 #
straight-curve $-1 -1 $-1 -5.200000000000000178 2.550000000000000711 0 0.0009916720735252417505 -0.0001287885809773044741 0 F 0 F 1429.894210131950331 #
point $-1 -1 $-1 -3.782013843716711232 2.365845953729443174 0 #
coedge $-1 -1 $-1 $153 $129 $-1 $154 forward $8 $-1 #
edge $155 -1 $-1 $144 0 $156 32 $129 $157 forward @7 unknown #
color-adesk-attrib $-1 -1 $-1 $-1 $130 256 #
vertex $-1 -1 $-1 $130 $158 #
straight-curve $-1 -1 $-1 6.299999999999999822 2.599999999999999645 0 0 0.001000000000000000021 0 F 0 F 200 #
point $-1 -1 $-1 6.299999999999999822 2.599999999999999645 0 #
coedge $-1 -1 $-1 $135 $159 $-1 $160 reversed $8 $-1 #
edge $161 -1 $-1 $150 0 $162 200 $135 $163 forward @7 unknown #
color-adesk-attrib $-1 -1 $-1 $-1 $136 256 #
vertex $-1 -1 $-1 $148 $164 #
straight-curve $-1 -1 $-1 -6.299999999999999822 2.600000000000000533 0 0.0009989685402102997051 -4.540766091864998906e-05 0 F 0 F 1101.135777277261923 #
point $-1 -1 $-1 -5.200000000000000178 2.550000000000000711 0 #
coedge $-1 -1 $-1 $165 $141 $-1 $166 forward $8 $-1 #
edge $167 -1 $-1 $156 0 $168 400 $141 $169 forward @7 unknown #
color-adesk-attrib $-1 -1 $-1 $-1 $142 256 #
vertex $-1 -1 $-1 $142 $170 #
straight-curve $-1 -1 $-1 6.299999999999999822 2.799999999999999822 0 0 0.001000000000000000021 0 F 0 F 32 #
point $-1 -1 $-1 6.299999999999999822 2.799999999999999822 0 #
coedge $-1 -1 $-1 $147 $171 $-1 $172 reversed $8 $-1 #
edge $173 -1 $-1 $162 0 $174 32 $147 $175 forward @7 unknown #
color-adesk-attrib $-1 -1 $-1 $-1 $148 256 #
vertex $-1 -1 $-1 $160 $176 #
straight-curve $-1 -1 $-1 -6.299999999999999822 2.600000000000000533 0 0 0.001000000000000000021 0 F 0 F 200 #
point $-1 -1 $-1 -6.299999999999999822 2.600000000000000533 0 #
coedge $-1 -1 $-1 $177 $153 $-1 $178 reversed $8 $-1 #
edge $179 -1 $-1 $168 0 $180 1600.319968006398312 $153 $181 forward @7 unknown #
color-adesk-attrib $-1 -1 $-1 $-1 $154 256 #
vertex $-1 -1 $-1 $154 $182 #
straight-curve $-1 -1 $-1 6.299999999999999822 2.831999999999999407 0 -0.001000000000000000021 0 0 F 0 F 400 #
point $-1 -1 $-1 6.299999999999999822 2.831999999999999407 0 #
coedge $-1 -1 $-1 $159 $183 $-1 $184 reversed $8 $-1 #
edge $185 -1 $-1 $174 0 $186 400 $159 $187 forward @7 unknown #
color-adesk-attrib $-1 -1 $-1 $-1 $160 256 #
vertex $-1 -1 $-1 $172 $188 #
straight-curve $-1 -1 $-1 -6.299999999999999822 2.800000000000000711 0 0 0.001000000000000000021 0 F 0 F 32 #
point $-1 -1 $-1 -6.299999999999999822 2.800000000000000711 0 #
coedge $-1 -1 $-1 $189 $165 $-1 $190 reversed $8 $-1 #
edge $191 -1 $-1 $192 0 $180 500.2249493977684551 $165 $193 forward @7 unknown #
color-adesk-attrib $-1 -1 $-1 $-1 $166 256 #
vertex $-1 -1 $-1 $166 $194 #
straight-curve $-1 -1 $-1 5.900000000000000355 2.831999999999999407 0 -0.0009998000599800071966 -1.999600119959985716e-05 0 F 0 F 1600.319968006398312 #
point $-1 -1 $-1 5.900000000000000355 2.831999999999999407 0 #
coedge $-1 -1 $-1 $171 $189 $-1 $195 forward $8 $-1 #
edge $196 -1 $-1 $186 0 $197 1600.319968006398312 $171 $198 forward @7 unknown #
color-adesk-attrib $-1 -1 $-1 $-1 $172 256 #
vertex $-1 -1 $-1 $184 $199 #
straight-curve $-1 -1 $-1 -6.299999999999999822 2.832000000000000295 0 0.001000000000000000021 0 0 F 0 F 400 #
point $-1 -1 $-1 -6.299999999999999822 2.832000000000000295 0 #
coedge $-1 -1 $-1 $183 $177 $-1 $200 forward $8 $-1 #
edge $201 -1 $-1 $202 0 $192 3800 $177 $203 forward @7 unknown #
color-adesk-attrib $-1 -1 $-1 $-1 $178 256 #
vertex $-1 -1 $-1 $178 $204 #
straight-curve $-1 -1 $-1 3.800000000000000266 2.815000000000000835 0 0.0009995503035223668366 -2.998650910567282141e-05 0 F 0 F 500.2249493977684551 #
point $-1 -1 $-1 4.299999999999999822 2.800000000000000266 0 #
edge $205 -1 $-1 $206 0 $197 500.2249493977684551 $183 $207 forward @7 unknown #
color-adesk-attrib $-1 -1 $-1 $-1 $184 256 #
vertex $-1 -1 $-1 $195 $208 #
straight-curve $-1 -1 $-1 -5.900000000000000355 2.832000000000000295 0 0.0009998000599800071966 -1.999600119960014176e-05 0 F 0 F 1600.319968006398312 #
point $-1 -1 $-1 -5.900000000000000355 2.832000000000000295 0 #
edge $209 -1 $-1 $202 0 $206 3800 $189 $210 forward @7 unknown #
color-adesk-attrib $-1 -1 $-1 $-1 $190 256 #
vertex $-1 -1 $-1 $190 $211 #
straight-curve $-1 -1 $-1 9.184850993605009308e-19 2.815000000000000391 0 0.001000000000000000021 1.196703554964379143e-19 0 F 0 F 3800 #
point $-1 -1 $-1 3.800000000000000266 2.815000000000000835 0 #
color-adesk-attrib $-1 -1 $-1 $-1 $195 256 #
vertex $-1 -1 $-1 $200 $212 #
straight-curve $-1 -1 $-1 -3.800000000000000266 2.815000000000001279 0 -0.0009995503035223668366 -2.998650910567282141e-05 0 F 0 F 500.2249493977684551 #
point $-1 -1 $-1 -4.299999999999999822 2.800000000000000711 0 #
color-adesk-attrib $-1 -1 $-1 $-1 $200 256 #
straight-curve $-1 -1 $-1 9.184850993605147975e-19 2.815000000000000391 0 -0.001000000000000000021 2.393407109928758286e-19 0 F 0 F 3800 #
point $-1 -1 $-1 9.184850993605009308e-19 2.815000000000000391 0 #
point $-1 -1 $-1 -3.800000000000000266 2.815000000000001279 0 #
